# xmcd
#
# Track frame offsets:
#	150
#	15926
#	32298
#	54411
#	68180
#
# Disc length: 1188 seconds
#
# Revision: 0
# Processed by: cddbd v1.5.2PL0 Copyright (c) Steve Scherf et al.
# Submitted via: EasyCDDAExtractor 16.0.6.1
#
DISCID=2e04a205
DTITLE=Sandália de Prata - Sandália de Prata (compacto)
DYEAR=1900
DGENRE=
TTITLE0=Sapato de Ouro
TTITLE1=Letícia
TTITLE2=Reza Forte
TTITLE3=Gildete
TTITLE4=Sou do Samba
EXTD=
EXTT0=
EXTT1=
EXTT2=
EXTT3=
EXTT4=
PLAYORDER=
